<?xml version="1.0" standalone="no"?><!-- Generator: Gravit.io --><svg xmlns="http://www.w3.org/2000/svg" xmlns:xlink="http://www.w3.org/1999/xlink" style="isolation:isolate" viewBox="0 0 100 100" width="100" height="100"><g><defs><filter id="b4ncQ4HXW48vtek0clXejZSVMNymYF6W" x="-200%" y="-200%" width="400%" height="400%" filterUnits="objectBoundingBox" color-interpolation-filters="sRGB"><feGaussianBlur xmlns="http://www.w3.org/2000/svg" in="SourceGraphic" stdDeviation="0.8587218125678057"/><feOffset xmlns="http://www.w3.org/2000/svg" dx="0" dy="1" result="pf_100_offsetBlur"/><feFlood xmlns="http://www.w3.org/2000/svg" flood-color="#000000" flood-opacity="0.65"/><feComposite xmlns="http://www.w3.org/2000/svg" in2="pf_100_offsetBlur" operator="in" result="pf_100_dropShadow"/><feBlend xmlns="http://www.w3.org/2000/svg" in="SourceGraphic" in2="pf_100_dropShadow" mode="normal"/></filter></defs><g filter="url(#b4ncQ4HXW48vtek0clXejZSVMNymYF6W)"><path d="M 3.333 0 L 96.667 0 C 98.506 0 100 1.494 100 3.333 L 100 96.667 C 100 98.506 98.506 100 96.667 100 L 3.333 100 C 1.494 100 0 98.506 0 96.667 L 0 3.333 C 0 1.494 1.494 0 3.333 0 Z" style="stroke:none;fill:#747474;stroke-miterlimit:10;"/></g><g><defs><filter id="fc9Soq9p1e9GAfhZ1kr7kFm4tnFWY03o" x="-200%" y="-200%" width="400%" height="400%" filterUnits="objectBoundingBox" color-interpolation-filters="sRGB"><feOffset xmlns="http://www.w3.org/2000/svg" in="SourceGraphic" dx="0" dy="1"/><feGaussianBlur xmlns="http://www.w3.org/2000/svg" stdDeviation="0.8587218125678057" result="pf_100_offsetBlur"/><feComposite xmlns="http://www.w3.org/2000/svg" in="SourceGraphic" in2="pf_100_offsetBlur" result="pf_100_inverse" operator="out"/><feFlood xmlns="http://www.w3.org/2000/svg" flood-color="#000000" flood-opacity="0.5" result="pf_100_color"/><feComposite xmlns="http://www.w3.org/2000/svg" in="pf_100_color" in2="pf_100_inverse" operator="in" result="pf_100_shadow"/><feComposite xmlns="http://www.w3.org/2000/svg" in="pf_100_shadow" in2="SourceGraphic" operator="over"/></filter></defs><g filter="url(#fc9Soq9p1e9GAfhZ1kr7kFm4tnFWY03o)"><rect x="10" y="70" width="80" height="20" transform="matrix(1,0,0,1,0,0)" fill="rgb(70,70,70)"/></g></g><g><defs><filter id="eJxdIAESfaKNojhnVnxoKUyNQoix0ev4" x="-200%" y="-200%" width="400%" height="400%" filterUnits="objectBoundingBox" color-interpolation-filters="sRGB"><feGaussianBlur xmlns="http://www.w3.org/2000/svg" in="SourceGraphic" stdDeviation="0.8587218125678057"/><feOffset xmlns="http://www.w3.org/2000/svg" dx="0" dy="0" result="pf_100_offsetBlur"/><feFlood xmlns="http://www.w3.org/2000/svg" flood-color="#000000" flood-opacity="0.65"/><feComposite xmlns="http://www.w3.org/2000/svg" in2="pf_100_offsetBlur" operator="in" result="pf_100_dropShadow"/><feBlend xmlns="http://www.w3.org/2000/svg" in="SourceGraphic" in2="pf_100_dropShadow" mode="normal"/></filter></defs><g filter="url(#eJxdIAESfaKNojhnVnxoKUyNQoix0ev4)"><path d="M 19 12 L 59 12 C 70.038 12 79 20.962 79 32 L 79 62 L 19 62 L 19 12 Z" style="stroke:none;fill:#FFFFFF;stroke-miterlimit:10;"/></g><g><defs><filter id="33pJ5tFuM2mwTMdkHOnGHKiDBtEoHwNq" x="-200%" y="-200%" width="400%" height="400%" filterUnits="objectBoundingBox" color-interpolation-filters="sRGB"><feGaussianBlur xmlns="http://www.w3.org/2000/svg" in="SourceGraphic" stdDeviation="0.8587218125678057"/><feOffset xmlns="http://www.w3.org/2000/svg" dx="0" dy="0" result="pf_100_offsetBlur"/><feFlood xmlns="http://www.w3.org/2000/svg" flood-color="#000000" flood-opacity="0.65"/><feComposite xmlns="http://www.w3.org/2000/svg" in2="pf_100_offsetBlur" operator="in" result="pf_100_dropShadow"/><feBlend xmlns="http://www.w3.org/2000/svg" in="SourceGraphic" in2="pf_100_dropShadow" mode="normal"/></filter></defs><g filter="url(#33pJ5tFuM2mwTMdkHOnGHKiDBtEoHwNq)"><path d="M 21 10 L 61 10 C 72.038 10 81 18.962 81 30 L 81 60 L 21 60 L 21 10 Z" style="stroke:none;fill:#FFFFFF;stroke-miterlimit:10;"/></g><path d=" M 53.5 30 L 53.5 25 L 43.5 25 L 43.5 20 L 43.5 20 L 53.5 20 C 56.26 20 58.5 22.24 58.5 25 L 58.5 25 L 58.5 25 L 58.5 25 L 58.5 25 L 58.5 30 C 58.5 32.76 56.26 35 53.5 35 L 51 35 L 51 40 L 51 40 L 51 40 L 46 40 L 46 35 L 46 35 L 46 35 C 46 32.24 48.24 30 51 30 L 53.5 30 Z  M 46 45 L 51 45 L 51 50 L 46 50 L 46 45 L 46 45 Z " fill-rule="evenodd" fill="rgb(70,70,70)"/></g></g></g></svg>